PathFileType	4	(X/Y/Z)	s10c0303.trc
DataRate	CameraRate	NumFrames	NumMarkers	Units	OrigDataRate	OrigDataStartFrame	OrigNumFrames
200	200	4	50	mm	200	1250	2000
Frame#	Time	racr			lacr			c7			jug			rlel			rdr			llel			ldr			s2			lic			ric			lasi			rasi			rpsi			lpsi			rgt			lgt			rth1			rth2			rth3			rth4			rlfc			rmfc			rsh1			rsh2			rsh3			rsh4			rlmal			rmmal			rcal			rtoe			rmt5			lth1			lth2			lth4			lth3			llfc			lmfc			llmal			lmmal			lcal			lmt5			lsh1			lsh2			lsh3			lsh4			ltoe			SBIKE			LBIKE			RBIKE			
		X1	Y1	Z1	X2	Y2	Z2	X3	Y3	Z3	X4	Y4	Z4	X5	Y5	Z5	X6	Y6	Z6	X7	Y7	Z7	X8	Y8	Z8	X9	Y9	Z9	X10	Y10	Z10	X11	Y11	Z11	X12	Y12	Z12	X13	Y13	Z13	X14	Y14	Z14	X15	Y15	Z15	X16	Y16	Z16	X17	Y17	Z17	X18	Y18	Z18	X19	Y19	Z19	X20	Y20	Z20	X21	Y21	Z21	X22	Y22	Z22	X23	Y23	Z23	X24	Y24	Z24	X25	Y25	Z25	X26	Y26	Z26	X27	Y27	Z27	X28	Y28	Z28	X29	Y29	Z29	X30	Y30	Z30	X31	Y31	Z31	X32	Y32	Z32	X33	Y33	Z33	X34	Y34	Z34	X35	Y35	Z35	X36	Y36	Z36	X37	Y37	Z37	X38	Y38	Z38	X39	Y39	Z39	X40	Y40	Z40	X41	Y41	Z41	X42	Y42	Z42	X43	Y43	Z43	X44	Y44	Z44	X45	Y45	Z45	X46	Y46	Z46	X47	Y47	Z47	X48	Y48	Z48	X49	Y49	Z49	X50	Y50	Z50	
1250	6.2500	693.895542	1290.824040	-61.827436	643.592104	1314.160218	-356.350013	652.502627	1327.737543	-201.393338	630.480307	1182.128403	-201.169605	580.458490	1055.315607	58.166701	640.862583	874.422180	-52.659318	559.214343	1073.946639	-487.767211	643.726142	878.466824	-411.057392	113.108983	1165.029663	-221.617426	285.747914	1165.096740	-354.954063	272.719225	1138.814253	-70.362155	307.132927	1071.259728	-339.588659	263.982133	1064.610835	-82.678953	155.644620	1213.383012	-155.142399	175.301353	1222.736418	-263.777407	147.367739	1056.917088	-34.724185	189.586085	1046.696370	-415.399312	228.601664	929.490914	-17.053522	308.303706	889.694990	-24.268837	353.687130	818.031989	-31.280232	331.953703	918.650464	-27.184153	445.520226	747.408375	-48.455192	443.450135	740.422133	-167.407013	376.357258	655.498468	-20.982548	351.778808	571.082353	-35.428035	290.224409	510.441550	-38.501834	376.263036	560.399449	-63.270803	234.087383	415.856507	-56.083403	254.685473	432.602977	-136.842476	173.565325	399.198655	-100.662424	412.635703	354.876407	-107.656795	331.464344	335.068886	-42.166372	245.121872	920.377985	-423.614371	301.965881	857.012659	-406.624208	332.050050	874.877544	-394.921223	320.416142	770.678484	-399.022934	350.654812	661.578663	-382.768261	348.429474	648.038731	-267.284919	39.409590	435.874218	-393.468507	50.911452	422.079598	-317.725960	-6.215677	466.066116	-343.987464	14.451867	287.943488	-398.224499	239.425073	604.863729	-421.417840	192.436990	531.864453	-407.175280	112.578141	492.372878	-406.467181	213.199538	512.337815	-382.071011	72.329183	232.804616	-344.933717	-217.159417	830.605957	-213.768693	-103.916106	80.714020	-418.360572	-103.926758	80.634079	-18.343755	
1251	6.2550	691.961910	1292.951995	-62.310090	644.626707	1315.506077	-357.547142	652.381576	1329.006763	-202.508247	630.590836	1184.003549	-203.765976	579.698072	1056.409159	55.803506	640.996697	874.499786	-52.744206	560.525784	1074.659685	-488.473814	643.838518	878.710495	-411.297066	113.331718	1165.866613	-218.059246	283.551398	1166.147785	-353.778459	275.392298	1137.571865	-70.046701	305.547805	1071.768596	-338.733890	265.838024	1063.457405	-81.203392	156.742621	1213.284336	-151.834807	174.757686	1223.365420	-260.615852	148.492456	1056.094560	-32.352583	188.725591	1047.951274	-413.392649	228.093459	926.789873	-15.598009	306.231892	884.060705	-23.875004	349.212980	810.900490	-32.100562	331.003865	912.186733	-26.915767	437.906133	735.424395	-50.521662	435.157113	728.712366	-167.686565	371.008923	642.119389	-21.960306	347.522557	557.583868	-37.318110	286.922336	495.961690	-39.747671	371.465918	547.852299	-65.997156	232.274616	402.466280	-56.262205	252.056213	419.335137	-137.357600	171.885854	384.203737	-101.648139	411.770951	345.433748	-107.383795	330.831460	323.731732	-42.183936	246.213041	922.037103	-421.746867	305.120092	860.338778	-406.074671	333.831050	878.096004	-393.237379	325.132876	774.075869	-397.631353	358.630821	665.584036	-380.937484	356.914258	653.496571	-264.676373	44.621970	444.960897	-393.135456	55.374477	432.581815	-313.521929	0.032101	476.676639	-343.868265	14.660032	297.850373	-398.094287	248.467882	609.514736	-419.868852	199.691891	537.609023	-405.684204	118.975002	499.753097	-405.853887	219.661513	518.020806	-380.106546	70.594862	240.720775	-344.861111	-217.111013	830.577015	-213.734324	-103.912273	80.705415	-418.388571	-103.935702	80.620775	-18.352959	
1252	6.2600	689.922635	1294.842753	-62.382266	645.682267	1316.947954	-359.514610	652.118488	1330.393167	-203.473594	630.560089	1185.983398	-206.485842	578.924770	1057.584734	53.362472	641.098115	874.630237	-52.757065	561.771896	1075.362281	-489.316508	644.117050	878.876081	-411.108953	113.533039	1166.481860	-214.696979	281.452075	1166.725648	-352.387719	278.458014	1136.060412	-69.700354	304.073981	1072.163711	-337.648003	267.536165	1062.061308	-79.989367	157.512680	1213.085030	-148.239334	174.444653	1224.036752	-257.915779	149.820499	1054.803930	-30.195801	187.620669	1048.820650	-410.867300	228.021967	923.685292	-14.040828	304.347840	878.168906	-23.558668	344.563974	803.540211	-32.851751	330.085879	905.652062	-26.690185	430.738899	723.348550	-52.156352	426.421740	717.112885	-168.288409	365.448490	628.700771	-23.180080	342.995208	544.216938	-38.993341	283.371957	481.448765	-40.969601	366.165691	535.029478	-68.697211	230.118621	389.363939	-56.540727	249.579749	406.484442	-138.070528	169.807797	370.178541	-101.776622	410.280965	335.082083	-107.472018	329.718233	312.364667	-42.127287	247.036736	923.565801	-419.818684	307.479343	863.229916	-404.821681	336.009606	881.594249	-392.553427	329.434566	777.426508	-396.388782	366.372236	669.752709	-379.097177	364.979344	658.717784	-261.896354	49.969163	453.964118	-392.573772	60.215167	440.970409	-312.772250	6.612399	486.978656	-343.618342	15.501576	307.900696	-398.065949	257.170600	613.975958	-417.780787	207.567323	544.277918	-405.265815	125.645227	506.837989	-405.158083	227.800795	525.122396	-379.833979	69.470017	248.834682	-344.884811	-217.118174	830.524867	-213.647404	-103.895019	80.712487	-418.379072	-103.927686	80.605158	-18.348082	
1253	6.2650	687.752241	1296.955986	-62.510315	647.034291	1318.098803	-360.769075	651.721778	1331.821801	-205.459602	630.639386	1187.948113	-209.921905	578.034799	1058.763401	50.858580	641.221103	874.644450	-52.721898	563.046367	1075.896805	-490.266735	644.323521	879.066936	-411.222870	113.647372	1166.799156	-211.516258	279.361842	1167.027223	-350.897090	281.485164	1134.547224	-69.626255	302.536815	1072.140769	-336.475768	269.271836	1060.416568	-78.770801	157.785619	1213.149040	-144.263188	173.336211	1223.737318	-254.556048	151.387830	1053.267542	-28.236964	186.439603	1049.315737	-408.272817	228.021126	920.329641	-12.738555	302.529550	872.239815	-23.261229	340.222788	796.236089	-33.544789	329.199679	898.667098	-27.060873	422.793315	711.617857	-54.452281	417.275521	705.210146	-168.995365	359.486799	615.577596	-24.615919	337.760947	530.916980	-41.323682	279.176422	467.284931	-42.002477	361.335535	522.712569	-70.588438	227.576510	376.776885	-56.772582	246.770289	393.958221	-138.685547	167.453325	356.940016	-101.993344	408.670181	325.776526	-106.627581	328.100259	301.048372	-42.064667	247.529406	925.039422	-417.879220	309.006478	865.522976	-402.831401	337.855958	884.962519	-391.822810	333.705910	781.074801	-395.999549	373.882291	674.129902	-377.381390	371.996058	664.470473	-259.253818	55.765389	462.960271	-392.206140	65.290854	449.463111	-312.103893	13.519964	497.102147	-343.424546	16.897275	317.905234	-398.002917	265.913025	618.575149	-416.155569	215.099458	549.945864	-403.819937	132.509760	513.708546	-404.371366	234.479501	530.669188	-377.765215	69.094932	256.994881	-344.687511	-217.101526	830.549394	-213.669202	-103.904387	80.715429	-418.358695	-103.925398	80.592533	-18.347369	
